<svg width="22" height="17" viewBox="0 0 22 17" fill="none" xmlns="http://www.w3.org/2000/svg">
<path d="M20.257 7.462C20.731 8.082 20.731 8.919 20.257 9.538C18.764 11.487 15.182 15.5 11 15.5C6.81801 15.5 3.23601 11.487 1.74301 9.538C1.51239 9.24113 1.38721 8.87592 1.38721 8.5C1.38721 8.12408 1.51239 7.75887 1.74301 7.462C3.23601 5.513 6.81801 1.5 11 1.5C15.182 1.5 18.764 5.513 20.257 7.462V7.462Z" stroke="#8F8F8F" stroke-width="2" stroke-linecap="round" stroke-linejoin="round"/>
<path d="M11 11.5C12.6569 11.5 14 10.1569 14 8.5C14 6.84315 12.6569 5.5 11 5.5C9.34315 5.5 8 6.84315 8 8.5C8 10.1569 9.34315 11.5 11 11.5Z" stroke="#8F8F8F" stroke-width="2" stroke-linecap="round" stroke-linejoin="round"/>
</svg>
